<?xml version="1.0" encoding="UTF-8"?><svg xmlns="http://www.w3.org/2000/svg" xmlns:xlink="http://www.w3.org/1999/xlink" height="49.6" preserveAspectRatio="xMidYMid meet" version="1.0" viewBox="0.6 -1.8 49.5 49.6" width="49.5" zoomAndPan="magnify"><g><g id="change1_3"><path d="M39.6,9.1c-0.2,0-0.4,0-0.6-0.1c-1-0.4-1.6-1.5-1.2-2.5l1.4-4c0.4-1,1.5-1.6,2.5-1.2c1,0.4,1.6,1.5,1.2,2.5 l-1.4,4C41.2,8.6,40.4,9.1,39.6,9.1z" fill="#fbca60"/></g><g id="change1_2"><path d="M40.2,10.2c-0.8,0-1.6-0.5-1.9-1.4c-0.3-1,0.3-2.1,1.3-2.4L44.2,5c1-0.3,2.1,0.3,2.4,1.3 c0.3,1-0.3,2.1-1.3,2.4l-4.6,1.4C40.5,10.2,40.4,10.2,40.2,10.2z" fill="#fbca60"/></g><g><g id="change2_1"><path d="M42.6,12.9C38.1,4.3,28.1,0.4,20.3,4.3c-7.8,3.9-10.6,14.1-6.2,22.8c0.5,0.9,1,1.8,1.6,2.6l-13,6.5 c4.7,9.2,18.7,11.6,29.7,6.1C42.9,37.1,47.9,25.9,44,16.8C43.7,15.5,43.2,14.2,42.6,12.9z" fill="#f3843b"/></g><g id="change3_1"><path d="M20.2,47.2c-8.3,0-16-3.6-19.3-10.1c-0.2-0.5-0.3-1-0.1-1.5c0.2-0.5,0.5-0.9,1-1.1l11.1-5.5 c-0.2-0.3-0.3-0.6-0.5-0.9c-2.5-4.9-3-10.6-1.4-15.6c1.4-4.4,4.4-7.9,8.4-9.9c8.8-4.4,20-0.1,24.9,9.5l0,0 c0.7,1.3,1.2,2.7,1.6,4.1c4.2,10-1.4,22.3-12.7,27.9C29,46.2,24.5,47.2,20.2,47.2z M5.5,37c4.9,6.6,16.4,8.4,26,3.6 c9.5-4.8,14.2-14.9,10.8-23c0-0.1-0.1-0.2-0.1-0.3c-0.3-1.2-0.8-2.4-1.3-3.5l0,0C36.9,6.1,28.1,2.6,21.2,6.1 c-3,1.5-5.3,4.2-6.5,7.6c-1.3,4-0.9,8.6,1.2,12.6c0.4,0.8,0.9,1.5,1.4,2.3c0.3,0.5,0.5,1.1,0.3,1.6c-0.1,0.6-0.5,1-1,1.3L5.5,37z" fill="#c36831"/></g></g><g id="change1_1"><path d="M29.1,13.3c-0.7,0-1.5-0.4-1.8-1.2c-0.4-1,0-2.1,1-2.6l0,0c1-0.4,2.1,0,2.6,1c0.4,1,0,2.1-1,2.6 C29.7,13.2,29.4,13.3,29.1,13.3z" fill="#fbca60"/></g></g></svg>