<?xml version="1.0" encoding="UTF-8"?><svg xmlns="http://www.w3.org/2000/svg" xmlns:xlink="http://www.w3.org/1999/xlink" height="480.0" preserveAspectRatio="xMidYMid meet" version="1.0" viewBox="16.0 16.0 480.0 480.0" width="480.0" zoomAndPan="magnify"><g id="change1_1"><path d="M256,72V24C127.87,24,24,127.87,24,256h48L256,72z" fill="#B97A0A"/></g><g id="change1_2"><path d="M256,440v48c128.13,0,232-103.87,232-232h-48L256,440z" fill="#B97A0A"/></g><g id="change2_1"><path d="M256,24v48L72,256H24c0,128.13,103.87,232,232,232v-48l184-184h48C488,127.87,384.13,24,256,24z" fill="#ECAB2C"/></g><g id="change3_1"><circle cx="256" cy="256" fill="#FFC864" r="200"/></g><g id="change1_3"><path d="M176 288L256 392 256 320z" fill="#B97A0A"/></g><g id="change2_2"><path d="M256 320L256 392 336 288z" fill="#ECAB2C"/></g><g id="change2_3"><path d="M336 256L256 112 176 256 256 224z" fill="#ECAB2C"/></g><g id="change1_4"><path d="M256 224L176 256 256 288 336 256z" fill="#B97A0A"/></g><g id="change2_4"><path d="M336 256L256 288 256 224z" fill="#ECAB2C"/></g><g id="change4_1"><path d="M256 288L256 112 336 256 256 288" fill="#1154ED"/></g><g id="change2_5"><path d="M336 256L256 288 256 224z" fill="#ECAB2C"/></g><g id="change5_1"><path d="M425.705,86.294C380.376,40.964,320.106,16,256,16S131.624,40.964,86.295,86.294C40.965,131.625,16,191.894,16,256 s24.965,124.375,70.295,169.706C131.624,471.036,191.894,496,256,496s124.376-24.964,169.705-70.294 C471.035,380.375,496,320.106,496,256S471.035,131.625,425.705,86.294z M479.844,248h-16.013 C459.712,139.659,372.341,52.288,264,48.169V32.156c56.831,1.982,109.976,25.036,150.392,65.452 C454.809,138.024,477.862,191.168,479.844,248z M256,448c-105.869,0-192-86.131-192-192S150.131,64,256,64s192,86.131,192,192 S361.869,448,256,448z M97.608,97.608c40.416-40.416,93.56-63.47,150.392-65.452v16.013C139.659,52.288,52.288,139.659,48.169,248 H32.156C34.138,191.168,57.191,138.024,97.608,97.608z M32.156,264h16.013c4.12,108.341,91.49,195.712,199.831,199.831v16.013 c-56.831-1.982-109.976-25.036-150.392-65.452C57.191,373.976,34.138,320.832,32.156,264z M414.392,414.392 c-40.416,40.416-93.56,63.47-150.392,65.452v-16.013c108.341-4.12,195.712-91.49,199.831-199.831h16.013 C477.862,320.832,454.809,373.976,414.392,414.392z" fill="inherit"/><path d="M173.029,263.428l80,32c0.953,0.381,1.962,0.572,2.971,0.572s2.018-0.191,2.971-0.572l80-32 c2.134-0.854,3.797-2.583,4.567-4.748c0.77-2.165,0.571-4.556-0.545-6.565l-80-144c-1.411-2.54-4.088-4.115-6.993-4.115 s-5.582,1.575-6.993,4.115l-80,144c-1.116,2.009-1.314,4.4-0.545,6.565C169.232,260.845,170.896,262.574,173.029,263.428z M248,276.184L197.541,256L248,235.816V276.184z M264,235.816L314.459,256L264,276.184V235.816z M264,218.584v-75.711 l54.079,97.343L264,218.584z M248,218.584l-54.079,21.632L248,142.873V218.584z" fill="inherit"/><path d="M333.029,280.572L256,311.384l-77.029-30.812c-3.344-1.338-7.175-0.275-9.35,2.6c-2.176,2.875-2.16,6.848,0.038,9.705 l80,104c1.515,1.969,3.857,3.123,6.341,3.123s4.826-1.154,6.341-3.123l80-104c2.198-2.857,2.214-6.831,0.038-9.705 C340.203,280.297,336.371,279.234,333.029,280.572z M248,325.416v43.063l-47.848-62.202L248,325.416z M264,368.479v-43.063 l47.848-19.139L264,368.479z" fill="inherit"/><path d="M131.549,366.309c-3.905,3.905-3.905,10.237,0,14.142c3.905,3.905,10.237,3.905,14.142,0 c3.905-3.905,3.905-10.237,0-14.142S135.455,362.403,131.549,366.309z" fill="inherit"/><circle cx="373.38" cy="138.62" fill="inherit" r="10"/><path d="M366.309,366.309c-3.905,3.905-3.905,10.237,0,14.142c3.905,3.905,10.237,3.905,14.142,0 c3.905-3.905,3.905-10.237,0-14.142S370.214,362.403,366.309,366.309z" fill="inherit"/><circle cx="138.62" cy="138.62" fill="inherit" r="10"/></g></svg>