<?xml version="1.0" encoding="UTF-8" standalone="no"?><svg xmlns="http://www.w3.org/2000/svg" xmlns:xlink="http://www.w3.org/1999/xlink" clip-rule="evenodd" fill="#000000" height="277.4" preserveAspectRatio="xMidYMid meet" stroke-linecap="round" stroke-linejoin="round" stroke-miterlimit="10" version="1" viewBox="32.4 294.1 930.5 277.4" width="930.5" zoomAndPan="magnify"><g id="change1_1"><path d="M36.0661 311.652C36.8785 336.836 36.1904 338.352 36.1201 354.964C36.0661 367.708 41.6219 370.722 40.9406 386.394C40.1282 405.079 42.193 403.353 41.753 409.954C40.9406 422.14 38.5033 436.884 38.5033 444.075C38.5033 455.486 36.846 472.685 37.6909 483.883C38.6171 496.157 36.0661 493.632 39.3157 513.942C42.5654 534.253 40.9406 534.847 40.9406 547.251C40.9406 551.659 32.3573 560.484 46.6275 563.5C84.7255 571.55 167.224 560.489 206.668 558.779C243.658 557.175 268.855 562.491 304.975 559.437C333.571 557.02 378.116 568.408 408.151 567.562C459.739 566.108 502.244 556.371 553.573 554.563C579.01 553.667 623.114 552.64 648.625 552.938C669.334 553.181 678.727 557.809 698.995 558.625C720.215 559.479 757.338 556.336 777.799 555.375C802.577 554.212 829.081 547.94 853.575 549.665C866.138 550.55 948.069 555.71 956.492 552.151C960.659 550.389 957.342 548.064 959.779 529.378C962.217 510.693 959.764 509.925 956.492 493.326C954.486 483.154 959.576 459.277 958.155 448.137C955.32 425.921 949.511 421.398 950.843 401.017C951.897 384.887 956.492 369.349 956.492 353.307C956.492 340.084 958.155 333.396 958.155 319.776C958.155 317.794 962.827 297.399 956.53 296.216C945.315 294.109 902.502 301.27 891.801 301.94C840.415 305.157 812.694 297.957 759.926 297.028C737.759 296.638 690.502 305.05 668.324 304.425C632.702 303.421 573.026 310.801 543.824 310.027C504.137 308.974 495.633 299.812 447.147 298.653C437.279 298.417 395.895 296.338 386.038 296.14C348.572 295.386 310.75 297.189 273.16 299.276C243.902 300.901 214.785 302.698 186.085 303.597C162.651 304.33 135.724 305.254 112.573 305.254C84.8552 305.254 35.8423 304.714 36.0661 311.652Z" fill="#000000"/></g></svg>