<?xml version="1.0" encoding="UTF-8" standalone="no"?><svg xmlns="http://www.w3.org/2000/svg" xmlns:xlink="http://www.w3.org/1999/xlink" fill="#000000" height="68.5" preserveAspectRatio="xMidYMid meet" version="1" viewBox="0.0 0.0 369.7 68.5" width="369.7" zoomAndPan="magnify"><g data-name="Layer 2"><g data-name="Layer 8"><g id="change1_1"><rect fill="#ffffff" height="63.48" rx="11.07" width="330.23" x="39.47" y="2.51"/></g><g id="change2_1"><path d="M81.16,25.7,59.06,3.6A12,12,0,0,0,51.42.14,12.36,12.36,0,0,0,49.69,0H12A12,12,0,0,0,0,12V56.5a12,12,0,0,0,12,12H49.69a11.85,11.85,0,0,0,3.64-.57,11.89,11.89,0,0,0,5.73-3.17l22.1-22.09A12,12,0,0,0,81.16,25.7Z" fill="#b97a0a"/></g></g></g></svg>