<?xml version="1.0" encoding="UTF-8" standalone="no"?><svg xmlns="http://www.w3.org/2000/svg" xmlns:xlink="http://www.w3.org/1999/xlink" data-name="Layer 1" fill="#ff00a1" height="60.1" preserveAspectRatio="xMidYMid meet" version="1" viewBox="12.7 19.2 74.5 60.1" width="74.5" zoomAndPan="magnify"><g id="change1_1"><path d="M34.126,34.4248a3.31965,3.31965,0,0,0-3.1001,3.47071,1.48826,1.48826,0,0,0,1.47461,1.48584h.02539a1.5122,1.5122,0,0,0,1.49951-1.46289.99843.99843,0,0,1,.13672-.481.32392.32392,0,0,1,.10059-.01562A1.5001,1.5001,0,0,0,34.126,34.4248Z"/></g><g id="change1_2"><path d="M86.42529,55.67627,74.96735,49.06622a30.16219,30.16219,0,0,0-6.57624-16.50714c-11.19629-13.40234-28.0459-10.65137-28.7583-10.52929a1.49362,1.49362,0,0,0-.53314.205l-.01508.00775a1.47867,1.47867,0,0,0-.13366.10389c-.03266.02624-.06818.04907-.09839.07782-.01434.01373-.02515.03033-.03888.04461a1.49382,1.49382,0,0,0-.40741,1.286l.50641,3.07178-6.88483-5.03711a1.5,1.5,0,0,0-2.35107,1.53076L31.05615,29.627a12.41932,12.41932,0,0,0-1.83771,1.4524L14.6333,28.00928a1.49979,1.49979,0,0,0-1.16016,2.70263l11.25647,7.75855A38.31728,38.31728,0,0,0,22.8999,48.61084v.1665A4.56858,4.56858,0,0,0,27.48,53.32373a4.43891,4.43891,0,0,0,3.64258-1.91748l2.2168-3.23486H34.6792a7.96674,7.96674,0,0,0,7.37842-4.96192,4.202,4.202,0,0,1,2.9331,2.79541c.36182,1.72608-1.20947,3.68213-4.30957,5.36524-11.37207,6.16357-9.7876,21.17138-9.71435,21.80713a1.5002,1.5002,0,0,0,2.648.7832c8.77-10.64087,20.15313-7.09308,26.63183-3.658v.4895a1.5008,1.5008,0,0,0,.75,1.29932l11.96875,6.9082a1.50017,1.50017,0,0,0,1.5-.00049l11.96045-6.9082a1.49957,1.49957,0,0,0,.75-1.29883V56.97559A1.50022,1.50022,0,0,0,86.42529,55.67627ZM66.08789,34.48145a27.2125,27.2125,0,0,1,5.89349,14.86248l-1.80627,1.04132a26.33466,26.33466,0,0,0-4.972-12.86132A26.67037,26.67037,0,0,0,41.90747,26.55l-.28442-1.72534C45.77417,24.50946,57.80688,24.56879,66.08789,34.48145ZM21.33105,32.48486l5.70044,1.19983a18.54136,18.54136,0,0,0-1.11987,1.95752Zm12.5752,36.81787a26.95193,26.95193,0,0,1,.52008-3.99054c1.73785-1.49383,10.45654-8.104,22.84125-2.49676a1.49975,1.49975,0,1,0,1.2373-2.73242c-10.04419-4.54956-18.05426-1.91931-22.54449.58435a15.37248,15.37248,0,0,1,2.71411-4.01068,25.269,25.269,0,0,1,19.58282.14166,1.50007,1.50007,0,1,0,1.21485-2.74316,27.35435,27.35435,0,0,0-14.27588-2.156,9.30045,9.30045,0,0,0,2.04382-2.44745A31.68875,31.68875,0,0,1,58.1792,50.77637a1.5,1.5,0,1,0,1.01172-2.82422A33.25784,33.25784,0,0,0,48.0387,46.423a5.55991,5.55991,0,0,0-.11145-1.03338,5.6241,5.6241,0,0,0-.29511-.9397,26.3897,26.3897,0,0,1,8.27557.43726,1.51612,1.51612,0,0,0,.36182.04443,1.50032,1.50032,0,0,0,.35986-2.95654,31.26534,31.26534,0,0,0-11.14129-.30091,8.16413,8.16413,0,0,0-2.845-1.40655c.00018-.021.00335-.0426.00335-.06354v-1.939a1.5,1.5,0,0,0-3,0v1.939a4.86258,4.86258,0,0,1-.103.97266l-.001.00976-.002.00489a4.94674,4.94674,0,0,1-4.86133,3.98H32.54883a1.50028,1.50028,0,0,0-1.23731.65234l-2.6582,3.87891a1.43374,1.43374,0,0,1-1.17334.62109,1.56548,1.56548,0,0,1-1.58008-1.54639l-.00195-.08593c.21875-4.06739,1.39111-13.8628,7.53564-16.97022a1.49972,1.49972,0,0,0,.78858-1.65869l-.76807-3.51221,4.27637,3.12842a1.51382,1.51382,0,0,0,1.25293.24414,15.10818,15.10818,0,0,1,1.65515-.29l.00793.00141a1.507,1.507,0,0,0,.2461-.02c.02624-.00434.04974-.01477.07544-.02039a23.50177,23.50177,0,0,1,21.83227,9.72644A23.7948,23.7948,0,0,1,67.312,52.03589l-6.31445,3.64038a1.49906,1.49906,0,0,0-.751,1.29932v9.97412C54.12744,64.04846,43.1438,60.90216,33.90625,69.30273Zm50.26953.62354-10.46094,6.042L63.24658,69.92578V57.84229l10.4668-6.03614,10.4624,6.03565Z"/></g><g id="change1_3"><path d="M72.96191,54.68066l-6.84668,3.95313a1.49943,1.49943,0,0,0-.75,1.29883v7.90527a1.49944,1.49944,0,0,0,.75,1.29883l6.84668,3.95264a1.49866,1.49866,0,0,0,1.5,0l6.8462-3.95264a1.49944,1.49944,0,0,0,.75-1.29883V59.93262a1.499,1.499,0,0,0-.75-1.29883l-6.8462-3.95313A1.49709,1.49709,0,0,0,72.96191,54.68066Zm6.0962,6.11817v6.17285l-5.3462,3.08691-5.34668-3.08691V60.79883l5.34668-3.0874Z"/></g></svg>