<?xml version="1.0" encoding="UTF-8" standalone="no"?><svg xmlns="http://www.w3.org/2000/svg" xmlns:xlink="http://www.w3.org/1999/xlink" clip-rule="evenodd" fill="#000000" fill-rule="evenodd" height="7123" image-rendering="optimizeQuality" preserveAspectRatio="xMidYMid meet" shape-rendering="geometricPrecision" text-rendering="geometricPrecision" version="1" viewBox="-83.0 -36.0 7278.0 7123.0" width="7278" zoomAndPan="magnify"><g fill="#ff00a1" id="change1_1"><path d="M1754 3526c-166,0 -321,-64 -437,-180l-1134 -1134c-241,-241 -241,-632 0,-873l1134 -1134c241,-241 633,-241 873,0 241,241 241,633 0,874l-79 79 2991 0c292,0 590,121 704,173 461,209 865,575 1202,1087 187,284 107,668 -177,855 -284,187 -668,109 -856,-176 -189,-288 -408,-502 -632,-618 -74,-39 -184,-81 -252,-86l-2980 0 79 79c241,241 241,633 0,874 -116,116 -271,180 -436,180z"/><path d="M5358 7087c-342,0 -618,-276 -618,-618 0,-165 64,-320 181,-436l79 -80 -2991 0c-292,0 -590,-121 -704,-173 -460,-209 -865,-575 -1201,-1087 -187,-283 -107,-669 176,-855 284,-187 668,-109 856,176 189,288 408,502 632,618 74,39 184,81 252,86l2980 0 -79 -79c-241,-241 -241,-633 0,-874 241,-240 633,-240 873,0l1134 1134c241,241 241,632 0,873l-1134 1134c-116,116 -271,181 -436,181z"/></g></svg>